<mxfile host="app.diagrams.net" agent="Mozilla/5.0 (Windows NT 10.0; Win64; x64) AppleWebKit/537.36 (KHTML, like Gecko) Chrome/127.0.0.0 Safari/537.36" version="24.7.7">
  <diagram name="Página-1" id="d2Aesm24YJxEg11cpa-B">
    <mxGraphModel dx="1050" dy="522" grid="1" gridSize="10" guides="1" tooltips="1" connect="1" arrows="1" fold="1" page="1" pageScale="1" pageWidth="827" pageHeight="1169" math="0" shadow="0">
      <root>
        <mxCell id="0" />
        <mxCell id="1" parent="0" />
        <mxCell id="m-49NBiziIOJQYQoEWxL-1" value="Cliente" style="shape=umlActor;verticalLabelPosition=bottom;verticalAlign=top;html=1;outlineConnect=0;" vertex="1" parent="1">
          <mxGeometry x="64" y="71" width="30" height="60" as="geometry" />
        </mxCell>
        <mxCell id="m-49NBiziIOJQYQoEWxL-2" value="Sistema" style="rounded=1;whiteSpace=wrap;html=1;fillColor=#d0cee2;strokeColor=#56517e;" vertex="1" parent="1">
          <mxGeometry x="320" y="66" width="110" height="50" as="geometry" />
        </mxCell>
        <mxCell id="m-49NBiziIOJQYQoEWxL-3" value="" style="rounded=1;whiteSpace=wrap;html=1;rotation=90;fillColor=#000000;arcSize=50;" vertex="1" parent="1">
          <mxGeometry x="-5.63" y="278.13" width="173.25" height="20" as="geometry" />
        </mxCell>
        <mxCell id="m-49NBiziIOJQYQoEWxL-4" value="" style="endArrow=none;dashed=1;html=1;dashPattern=1 3;strokeWidth=2;rounded=0;" edge="1" parent="1">
          <mxGeometry width="50" height="50" relative="1" as="geometry">
            <mxPoint x="81" y="213" as="sourcePoint" />
            <mxPoint x="81" y="163" as="targetPoint" />
          </mxGeometry>
        </mxCell>
        <mxCell id="m-49NBiziIOJQYQoEWxL-5" value="" style="rounded=1;whiteSpace=wrap;html=1;rotation=90;fillColor=#000000;arcSize=50;" vertex="1" parent="1">
          <mxGeometry x="285.75" y="278.13" width="173.25" height="20" as="geometry" />
        </mxCell>
        <mxCell id="m-49NBiziIOJQYQoEWxL-6" value="" style="endArrow=none;dashed=1;html=1;dashPattern=1 3;strokeWidth=2;rounded=0;" edge="1" parent="1">
          <mxGeometry width="50" height="50" relative="1" as="geometry">
            <mxPoint x="372.5" y="210" as="sourcePoint" />
            <mxPoint x="373" y="140" as="targetPoint" />
          </mxGeometry>
        </mxCell>
        <mxCell id="m-49NBiziIOJQYQoEWxL-7" value="" style="endArrow=classic;html=1;rounded=0;" edge="1" parent="1">
          <mxGeometry width="50" height="50" relative="1" as="geometry">
            <mxPoint x="100" y="219" as="sourcePoint" />
            <mxPoint x="350" y="220" as="targetPoint" />
          </mxGeometry>
        </mxCell>
        <mxCell id="m-49NBiziIOJQYQoEWxL-8" value="1.Selecionar Função(respiração)" style="edgeLabel;html=1;align=center;verticalAlign=middle;resizable=0;points=[];" vertex="1" connectable="0" parent="m-49NBiziIOJQYQoEWxL-7">
          <mxGeometry x="-0.0275" relative="1" as="geometry">
            <mxPoint x="-9" as="offset" />
          </mxGeometry>
        </mxCell>
        <mxCell id="m-49NBiziIOJQYQoEWxL-9" value="Controlador de respiraçao" style="rounded=1;whiteSpace=wrap;html=1;fillColor=#d0cee2;strokeColor=#56517e;" vertex="1" parent="1">
          <mxGeometry x="549.38" y="66" width="110" height="50" as="geometry" />
        </mxCell>
        <mxCell id="m-49NBiziIOJQYQoEWxL-10" value="" style="rounded=1;whiteSpace=wrap;html=1;rotation=90;fillColor=#000000;arcSize=50;" vertex="1" parent="1">
          <mxGeometry x="517.75" y="278.13" width="173.25" height="20" as="geometry" />
        </mxCell>
        <mxCell id="m-49NBiziIOJQYQoEWxL-11" value="" style="endArrow=none;dashed=1;html=1;dashPattern=1 3;strokeWidth=2;rounded=0;" edge="1" parent="1">
          <mxGeometry width="50" height="50" relative="1" as="geometry">
            <mxPoint x="603.75" y="214" as="sourcePoint" />
            <mxPoint x="604.25" y="144" as="targetPoint" />
          </mxGeometry>
        </mxCell>
        <mxCell id="m-49NBiziIOJQYQoEWxL-12" value="" style="endArrow=classic;html=1;rounded=0;" edge="1" parent="1">
          <mxGeometry width="50" height="50" relative="1" as="geometry">
            <mxPoint x="391" y="220" as="sourcePoint" />
            <mxPoint x="582" y="220" as="targetPoint" />
          </mxGeometry>
        </mxCell>
        <mxCell id="m-49NBiziIOJQYQoEWxL-13" value="2.Solicita inicio" style="edgeLabel;html=1;align=center;verticalAlign=middle;resizable=0;points=[];" vertex="1" connectable="0" parent="m-49NBiziIOJQYQoEWxL-12">
          <mxGeometry x="-0.0275" relative="1" as="geometry">
            <mxPoint x="-1" as="offset" />
          </mxGeometry>
        </mxCell>
        <mxCell id="m-49NBiziIOJQYQoEWxL-14" value="" style="endArrow=classic;html=1;rounded=0;dashed=1;" edge="1" parent="1">
          <mxGeometry width="50" height="50" relative="1" as="geometry">
            <mxPoint x="580" y="295" as="sourcePoint" />
            <mxPoint x="100" y="295" as="targetPoint" />
          </mxGeometry>
        </mxCell>
        <mxCell id="m-49NBiziIOJQYQoEWxL-15" value="6.Exibe Instruções" style="edgeLabel;html=1;align=center;verticalAlign=middle;resizable=0;points=[];" vertex="1" connectable="0" parent="m-49NBiziIOJQYQoEWxL-14">
          <mxGeometry x="-0.0438" y="1" relative="1" as="geometry">
            <mxPoint x="134" y="-1" as="offset" />
          </mxGeometry>
        </mxCell>
        <mxCell id="m-49NBiziIOJQYQoEWxL-16" value="" style="endArrow=classic;html=1;rounded=0;dashed=1;" edge="1" parent="1">
          <mxGeometry width="50" height="50" relative="1" as="geometry">
            <mxPoint x="350" y="352" as="sourcePoint" />
            <mxPoint x="100" y="352" as="targetPoint" />
          </mxGeometry>
        </mxCell>
        <mxCell id="m-49NBiziIOJQYQoEWxL-17" value="10.Mensagem de conclusão" style="edgeLabel;html=1;align=center;verticalAlign=middle;resizable=0;points=[];" vertex="1" connectable="0" parent="m-49NBiziIOJQYQoEWxL-16">
          <mxGeometry x="0.1796" relative="1" as="geometry">
            <mxPoint as="offset" />
          </mxGeometry>
        </mxCell>
        <mxCell id="m-49NBiziIOJQYQoEWxL-18" value="" style="endArrow=none;dashed=1;html=1;rounded=0;" edge="1" parent="1">
          <mxGeometry width="50" height="50" relative="1" as="geometry">
            <mxPoint x="80.58" y="480" as="sourcePoint" />
            <mxPoint x="80.58" y="410" as="targetPoint" />
          </mxGeometry>
        </mxCell>
        <mxCell id="m-49NBiziIOJQYQoEWxL-19" value="" style="endArrow=none;html=1;rounded=0;strokeWidth=4;" edge="1" parent="1">
          <mxGeometry width="50" height="50" relative="1" as="geometry">
            <mxPoint x="53" y="539" as="sourcePoint" />
            <mxPoint x="103" y="489" as="targetPoint" />
          </mxGeometry>
        </mxCell>
        <mxCell id="m-49NBiziIOJQYQoEWxL-20" value="" style="endArrow=none;html=1;rounded=0;strokeWidth=4;" edge="1" parent="1">
          <mxGeometry width="50" height="50" relative="1" as="geometry">
            <mxPoint x="57" y="486" as="sourcePoint" />
            <mxPoint x="101" y="542" as="targetPoint" />
          </mxGeometry>
        </mxCell>
        <mxCell id="m-49NBiziIOJQYQoEWxL-21" value="" style="endArrow=classic;html=1;rounded=0;" edge="1" parent="1">
          <mxGeometry width="50" height="50" relative="1" as="geometry">
            <mxPoint x="388" y="320.88" as="sourcePoint" />
            <mxPoint x="587" y="321" as="targetPoint" />
          </mxGeometry>
        </mxCell>
        <mxCell id="m-49NBiziIOJQYQoEWxL-22" value="8.Informa enceramento" style="edgeLabel;html=1;align=center;verticalAlign=middle;resizable=0;points=[];" vertex="1" connectable="0" parent="m-49NBiziIOJQYQoEWxL-21">
          <mxGeometry y="-2" relative="1" as="geometry">
            <mxPoint y="-1" as="offset" />
          </mxGeometry>
        </mxCell>
        <mxCell id="m-49NBiziIOJQYQoEWxL-23" value="" style="rounded=1;whiteSpace=wrap;html=1;rotation=90;fillColor=#000000;arcSize=50;" vertex="1" parent="1">
          <mxGeometry x="746.75" y="279.13" width="173.25" height="20" as="geometry" />
        </mxCell>
        <mxCell id="m-49NBiziIOJQYQoEWxL-24" value="Timer" style="rounded=1;whiteSpace=wrap;html=1;fillColor=#d0cee2;strokeColor=#56517e;" vertex="1" parent="1">
          <mxGeometry x="778.37" y="66" width="110" height="50" as="geometry" />
        </mxCell>
        <mxCell id="m-49NBiziIOJQYQoEWxL-25" value="" style="endArrow=none;dashed=1;html=1;dashPattern=1 3;strokeWidth=2;rounded=0;" edge="1" parent="1">
          <mxGeometry width="50" height="50" relative="1" as="geometry">
            <mxPoint x="833.75" y="214" as="sourcePoint" />
            <mxPoint x="834.25" y="144" as="targetPoint" />
          </mxGeometry>
        </mxCell>
        <mxCell id="m-49NBiziIOJQYQoEWxL-26" value="" style="endArrow=classic;html=1;rounded=0;" edge="1" parent="1">
          <mxGeometry width="50" height="50" relative="1" as="geometry">
            <mxPoint x="622" y="220" as="sourcePoint" />
            <mxPoint x="813" y="220" as="targetPoint" />
          </mxGeometry>
        </mxCell>
        <mxCell id="m-49NBiziIOJQYQoEWxL-27" value="3.Configura e inicia" style="edgeLabel;html=1;align=center;verticalAlign=middle;resizable=0;points=[];" vertex="1" connectable="0" parent="m-49NBiziIOJQYQoEWxL-26">
          <mxGeometry x="-0.0275" relative="1" as="geometry">
            <mxPoint x="-6" as="offset" />
          </mxGeometry>
        </mxCell>
        <mxCell id="m-49NBiziIOJQYQoEWxL-28" value="" style="endArrow=classic;html=1;rounded=0;" edge="1" parent="1">
          <mxGeometry width="50" height="50" relative="1" as="geometry">
            <mxPoint x="814" y="240" as="sourcePoint" />
            <mxPoint x="623" y="240" as="targetPoint" />
          </mxGeometry>
        </mxCell>
        <mxCell id="m-49NBiziIOJQYQoEWxL-29" value="4.Notificação de tempo" style="edgeLabel;html=1;align=center;verticalAlign=middle;resizable=0;points=[];" vertex="1" connectable="0" parent="m-49NBiziIOJQYQoEWxL-28">
          <mxGeometry x="-0.0275" relative="1" as="geometry">
            <mxPoint x="-2" as="offset" />
          </mxGeometry>
        </mxCell>
        <mxCell id="m-49NBiziIOJQYQoEWxL-30" value="" style="endArrow=classic;html=1;rounded=0;" edge="1" parent="1">
          <mxGeometry width="50" height="50" relative="1" as="geometry">
            <mxPoint x="622" y="277" as="sourcePoint" />
            <mxPoint x="813" y="277" as="targetPoint" />
          </mxGeometry>
        </mxCell>
        <mxCell id="m-49NBiziIOJQYQoEWxL-31" value="5.Atualiza instruções" style="edgeLabel;html=1;align=center;verticalAlign=middle;resizable=0;points=[];" vertex="1" connectable="0" parent="m-49NBiziIOJQYQoEWxL-30">
          <mxGeometry x="-0.0275" relative="1" as="geometry">
            <mxPoint x="-1" as="offset" />
          </mxGeometry>
        </mxCell>
        <mxCell id="m-49NBiziIOJQYQoEWxL-32" value="" style="endArrow=classic;html=1;rounded=0;" edge="1" parent="1">
          <mxGeometry width="50" height="50" relative="1" as="geometry">
            <mxPoint x="103" y="319" as="sourcePoint" />
            <mxPoint x="350" y="320" as="targetPoint" />
          </mxGeometry>
        </mxCell>
        <mxCell id="m-49NBiziIOJQYQoEWxL-33" value="7.Encera função e fornece&amp;nbsp; feedback" style="edgeLabel;html=1;align=center;verticalAlign=middle;resizable=0;points=[];" vertex="1" connectable="0" parent="m-49NBiziIOJQYQoEWxL-32">
          <mxGeometry x="-0.0275" relative="1" as="geometry">
            <mxPoint x="1" as="offset" />
          </mxGeometry>
        </mxCell>
        <mxCell id="m-49NBiziIOJQYQoEWxL-34" value="" style="endArrow=classic;html=1;rounded=0;" edge="1" parent="1">
          <mxGeometry width="50" height="50" relative="1" as="geometry">
            <mxPoint x="622" y="320" as="sourcePoint" />
            <mxPoint x="814" y="320" as="targetPoint" />
          </mxGeometry>
        </mxCell>
        <mxCell id="m-49NBiziIOJQYQoEWxL-35" value="9.Fim da função" style="edgeLabel;html=1;align=center;verticalAlign=middle;resizable=0;points=[];" vertex="1" connectable="0" parent="m-49NBiziIOJQYQoEWxL-34">
          <mxGeometry y="-2" relative="1" as="geometry">
            <mxPoint x="-8" y="-1" as="offset" />
          </mxGeometry>
        </mxCell>
      </root>
    </mxGraphModel>
  </diagram>
</mxfile>
